# xmcd
#
# Track frame offsets:
# 150
# 10132
# 19425
# 29187
# 39425
# 51182
# 62782
# 71212
# 84557
# 93505
# 103645
# 115282
# 128712
# 140127
# 149102
# 162562
# 173837
# 182722
# 195797
# 209470
#
# Disc length: 2961 seconds
#
#
# Revision: 2
# Processed by: cddbd v1.5.2PL0 Copyright (c) Steve Scherf et al.
# Submitted via: FreeRIP 2.52 
#
DISCID=320b8f14
DTITLE=Various Artist - The Best of 50's and 60's
DYEAR=1900
DGENRE=blues
TTITLE0=Bill Halley - Rock Around The Clock
TTITLE1=Ritchie Valens - La Bamba
TTITLE2=Little Richard - Good Golly Miss Molly
TTITLE3=Neil Sedaka - Oh Carol
TTITLE4=The Platters - Only You
TTITLE5=Paul Anka - Put Your Head On My Shoulder
TTITLE6=Jerry Lee Lewis - Great Balls Of Fire
TTITLE7=Roy Orbison - Oh! Pretty Woman
TTITLE8=The Everly Brothers - Wake Up Little Susie
TTITLE9=Carl Perkins - Blue Suede Shoes
TTITLE10=Chubby Checker - The Twist
TTITLE11=Ben E. King - Stand By Me
TTITLE12=Del Shannon - Runaway
TTITLE13=The Beach Boys - Surfin' Safari
TTITLE14=Trini Lopez - If I Had A Hammer
TTITLE15=Louis Armstrong - Hello Dolly
TTITLE16=Wayne Fontana - A Groovy Kinf Of Love
TTITLE17=Percy Sledge - When A Man Loves A Woman
TTITLE18=Aaron Nevile - Tell It Like It Is
TTITLE19=The Archies - Sugar, Sugar
EXTD=
EXTT0=
EXTT1=
EXTT2=
EXTT3=
EXTT4=
EXTT5=
EXTT6=
EXTT7=
EXTT8=
EXTT9=
EXTT10=
EXTT11=
EXTT12=
EXTT13=
EXTT14=
EXTT15=
EXTT16=
EXTT17=
EXTT18=
EXTT19=
PLAYORDER=
